# xmcd
#
# Track frame offsets:
#	150
#	14100
#	24840
#	35562
#	51247
#	64010
#	75152
#	87095
#	99267
#	111485
#
# Disc length: 1661 seconds
#
# Revision: 0
# Processed by: cddbd v1.5.2PL0 Copyright (c) Steve Scherf et al.
# Submitted via: EasyCDDAExtractor 11.0.2.1
#
DISCID=72067b0a
DTITLE=Lissette - Falsedad
DYEAR=1972
DGENRE=Latin
TTITLE0=En Nombre Del Amor
TTITLE1=Un Sabado Mas
TTITLE2=El Reloj De Cu Cu
TTITLE3=¡Oye!
TTITLE4=El Que Siembra Amor
TTITLE5=Falsedad
TTITLE6=Yo Confieso
TTITLE7=He Dado Todo De Mi
TTITLE8=Mi Corazon Es Una Flor
TTITLE9=De La Casa Al Trabajo
EXTD=
EXTT0=
EXTT1=
EXTT2=
EXTT3=
EXTT4=
EXTT5=
EXTT6=
EXTT7=
EXTT8=
EXTT9=
PLAYORDER=
